<?xml version="1.0" encoding="UTF-8"?>
<svg version="1.1" viewBox="0 0 707 1412" xmlns="http://www.w3.org/2000/svg">
 <path d="m535.37 374.36c-2.6796-2.7244-7.6267-7.0913-10.994-9.7043-5.3673-4.1654-8.078-7.7774-22-29.314-22.511-34.824-33.243-46.966-51.194-57.923-3.6763-2.2438-6.47-4.4938-6.2081-5 1.2665-2.4485 21.243-10.516 27.482-11.099 15.935-1.488 40.525 11.274 52.367 27.178 6.5492 8.7954 10.589 18.286 14.706 34.545l3.6596 14.455-0.38679 19c-0.48385 23.768-0.82245 24.582-7.4315 17.862zm-366.76 2.8192c-0.29591-0.4788-1.4546-4.9856-2.575-10.015-7.6923-34.534 6.8447-76.475 32.242-93.022 8.316-5.4181 25.597-12.332 32.221-12.892 4.1197-0.3479 32.281 7.8272 35.272 10.239 0.14986 0.12085-3.8724 2.8474-8.9384 6.0589-13.241 8.394-27.775 22.748-35.859 35.415-7.071 11.08-20.856 31.322-29.173 42.84-6.1682 8.542-22.065 23.195-23.19 21.375z" style="fill:#ff4757"/>
</svg>
