<?xml version="1.0" encoding="UTF-8"?>
<svg version="1.1" viewBox="0 0 707 1412" xmlns="http://www.w3.org/2000/svg">
 <path d="m425.57 1282.1c-0.30138-0.4877-2.1279-1.1831-4.059-1.5454-4.3702-0.8198-4.6615 3.4303 2.899-42.298 7.6105-46.031 8.2787-51.264 9.576-74.999 0.84588-15.476 5.3073-53.318 6.5166-55.275 0.21023-0.3402 1.5438-8.0728 2.9635-17.184 2.1955-14.089 3.3046-18.34 7.4207-28.439 6.4257-15.766 10.05-23.77 10.54-23.277 0.22078 0.222 1.9603 7.1537 3.8656 15.404l3.4642 15-0.82011 25c-1.4992 45.7-8.2979 80.424-24.046 122.81-7.379 19.863-11.965 34.189-12.021 37.552-0.0333 1.9987-0.69259 9.0206-1.4652 15.604-0.77259 6.5836-1.4047 12.096-1.4047 12.25 0 0.7032-2.942 0.1827-3.4299-0.6067zm-145.99-8.5127c-11.163-36.943-14.531-49.156-20.63-74.804-3.8315-16.113-7.3723-30.197-7.8684-31.297-0.49613-1.1-3.0364-15.014-5.645-30.92l-4.743-28.92 0.66032-23.08c0.59774-20.893 2.9256-43.826 4.656-45.87 0.3681-0.4349 2.3796 3.3901 4.47 8.5 2.0904 5.1099 4.8133 11.541 6.0509 14.291 7.269 16.152 10.25 34.335 15.488 94.487 1.6532 18.982 3.6747 41.214 4.4923 49.404s1.4864 17.89 1.4864 21.558c0 4.6287 1.5091 12.765 4.9352 26.61 5.8105 23.48 6.5792 27.39 5.4261 27.599-6.0358 1.0969-6.2098 0.9472-8.7791-7.5558z" style="fill:#ff4757"/>
</svg>
